<svg id="Layer_1" data-name="Layer 1" xmlns="http://www.w3.org/2000/svg" xmlns:xlink="http://www.w3.org/1999/xlink" viewBox="0 0 254.55 162.87"><defs><style>.cls-1{fill:none;}.cls-2{fill:#f59d35;}.cls-3{fill:#404042;}.cls-4{clip-path:url(#clip-path);}.cls-5{fill:#686768;}.cls-6{clip-path:url(#clip-path-2);}</style><clipPath id="clip-path"><path class="cls-1" d="M244.34,155.4l-2.34,0c-3.81.07-12.9.22-19.95.22a85.44,85.44,0,0,1-9.21-.26c-1-.25-1.86-.47-31.89-57-12.19-22.93-24.35-46.08-28.23-53.47l-9.22,17-16.28-29.3L138.63,7.23h29.62Z"/></clipPath><clipPath id="clip-path-2"><path class="cls-1" d="M108.77,9.65,184.9,155.44H91L76,130.13l26-50.61,13.53,23c.09.18,6.08,11.57-1.23,20.74H132.8l-41-80.2L61.67,100.37,44.25,72.08,80.73,9.65Z"/></clipPath></defs><polygon class="cls-2" points="28.41 103.25 5.49 151.53 32.8 151.53 57.18 103.25 28.41 103.25"/><path id="SVGID" class="cls-3" d="M244.34,155.4l-2.34,0c-3.81.07-12.9.22-19.95.22a85.44,85.44,0,0,1-9.21-.26c-1-.25-1.86-.47-31.89-57-12.19-22.93-24.35-46.08-28.23-53.47l-9.22,17-16.28-29.3L138.63,7.23h29.62Z"/><g class="cls-4"><circle class="cls-5" cx="100.72" cy="-48.91" r="131.46"/></g><path id="SVGID-2" data-name="SVGID" class="cls-3" d="M108.77,9.65,184.9,155.44H91L76,130.13l26-50.61,13.53,23c.09.18,6.08,11.57-1.23,20.74H132.8l-41-80.2L61.67,100.37,44.25,72.08,80.73,9.65Z"/><g class="cls-6"><circle class="cls-5" cx="100.72" cy="-48.91" r="131.46"/></g></svg>