<svg id="Layer_1" data-name="Layer 1" xmlns="http://www.w3.org/2000/svg" xmlns:xlink="http://www.w3.org/1999/xlink" viewBox="0 0 916.38 176.1"><defs><style>.cls-1{fill:none;}.cls-2{fill:#f59d35;}.cls-3,.cls-8{fill:#404042;}.cls-4{clip-path:url(#clip-path);}.cls-5{fill:#686768;}.cls-6{clip-path:url(#clip-path-2);}.cls-7{fill:#f39422;stroke:#f39422;}.cls-7,.cls-8{stroke-miterlimit:10;stroke-width:2px;}.cls-8{stroke:#404042;}.cls-9{fill:#f39421;}</style><clipPath id="clip-path"><path class="cls-1" d="M251.86,163.44l-2.34,0c-3.81.07-12.9.22-20,.22a85.44,85.44,0,0,1-9.21-.26c-1-.25-1.86-.47-31.89-57C176.28,83.51,164.12,60.36,160.24,53L151,70l-16.28-29.3,11.41-25.41h29.62Z"/></clipPath><clipPath id="clip-path-2"><path class="cls-1" d="M116.29,17.69l76.13,145.79H98.48l-15-25.31,26-50.61,13.53,23c.09.18,6.08,11.57-1.23,20.74h18.55l-41-80.2L69.19,108.41,51.77,80.12,88.25,17.69Z"/></clipPath></defs><polygon class="cls-2" points="35.93 111.3 13.01 159.57 40.32 159.57 64.7 111.3 35.93 111.3"/><path id="SVGID" class="cls-3" d="M251.86,163.44l-2.34,0c-3.81.07-12.9.22-20,.22a85.44,85.44,0,0,1-9.21-.26c-1-.25-1.86-.47-31.89-57C176.28,83.51,164.12,60.36,160.24,53L151,70l-16.28-29.3,11.41-25.41h29.62Z"/><g class="cls-4"><circle class="cls-5" cx="108.24" cy="-40.87" r="131.46"/></g><path id="SVGID-2" data-name="SVGID" class="cls-3" d="M116.29,17.69l76.13,145.79H98.48l-15-25.31,26-50.61,13.53,23c.09.18,6.08,11.57-1.23,20.74h18.55l-41-80.2L69.19,108.41,51.77,80.12,88.25,17.69Z"/><g class="cls-6"><circle class="cls-5" cx="108.24" cy="-40.87" r="131.46"/></g><path class="cls-7" d="M382.62,60.15a7.92,7.92,0,0,1-5.49-1.92,6.7,6.7,0,0,1,0-9.84,8.85,8.85,0,0,1,11,0,6.77,6.77,0,0,1,0,9.84A7.9,7.9,0,0,1,382.62,60.15Zm-6.14,63.54V69h12.34v54.65Z"/><path class="cls-7" d="M404.15,123.69V69h11.94v8.74h.85a15.47,15.47,0,0,1,6.12-7.27,18.8,18.8,0,0,1,10.12-2.57q9.09,0,14,5.29T452,88.32v35.37H439.62V91.27q0-12.54-11-12.54a11.3,11.3,0,0,0-8.79,3.55q-3.26,3.56-3.25,9.59v31.82Z"/><path class="cls-7" d="M465.44,84.68a14.52,14.52,0,0,1,6.09-12.06Q477.62,68,487.32,68t15.56,4.12a15.07,15.07,0,0,1,6.47,11.56H497.71A7.31,7.31,0,0,0,494.34,79a12.91,12.91,0,0,0-7-1.67,12.62,12.62,0,0,0-7.09,1.85,5.54,5.54,0,0,0-2.8,4.8,4.6,4.6,0,0,0,2,3.8,16.21,16.21,0,0,0,6.12,2.45l9.64,2.2q7.89,1.8,11.59,5.34a12.62,12.62,0,0,1,3.7,9.54A15,15,0,0,1,504,120q-6.5,4.81-16.78,4.82t-16.36-4.2A15.21,15.21,0,0,1,464.05,109h12.24a8,8,0,0,0,3.77,4.77,14.68,14.68,0,0,0,7.47,1.67,14,14,0,0,0,7.64-1.87,5.65,5.65,0,0,0,2.95-4.92q0-4.55-7.54-6.19l-9.69-2.25q-7.89-1.8-11.66-5.57A13.37,13.37,0,0,1,465.44,84.68Z"/><path class="cls-7" d="M570.59,69.05V123.7H558.65V115h-.85q-4.14,9.8-16.33,9.79-8.94,0-13.94-5.32t-5-14.91V69.05h12.39v32.42q0,6.3,2.65,9.37c1.76,2,4.5,3.07,8.19,3.07q6,0,9.22-3.45t3.22-9.59V69.05Z"/><path class="cls-8" d="M585.78,123.69V69h11.94v8.49h.85a11.8,11.8,0,0,1,5.17-6.74A16.51,16.51,0,0,1,613,68.14a18.32,18.32,0,0,1,5.14.55V80.18a20.15,20.15,0,0,0-6.34-.7A14,14,0,0,0,602,83a11.83,11.83,0,0,0-3.8,9.17v31.57Z"/><path class="cls-8" d="M642.67,124.59q-8,0-13-4.5a15.16,15.16,0,0,1-5-11.89A13.9,13.9,0,0,1,630,96.61q5.37-4.2,15.36-4.79L659.41,91v-4.6a7.49,7.49,0,0,0-2.65-6.19C655,78.75,652.45,78,649.12,78A15.15,15.15,0,0,0,642,79.5a7,7,0,0,0-3.65,4.22H626.69a15.28,15.28,0,0,1,7-11.51q6.27-4.27,16-4.27,10.49,0,16.21,4.85t5.72,13.59v37.31H659.71V116.2h-.85a15.87,15.87,0,0,1-6.57,6.17A20.57,20.57,0,0,1,642.67,124.59Zm3.65-9.74a13.81,13.81,0,0,0,9.34-3.22,10.1,10.1,0,0,0,3.75-8V99.31l-12.34.8q-10.19.65-10.19,7.39a6.37,6.37,0,0,0,2.62,5.37A11,11,0,0,0,646.32,114.85Z"/><path class="cls-8" d="M686.53,123.69V69h11.94v8.74h.85a15.47,15.47,0,0,1,6.12-7.27,18.8,18.8,0,0,1,10.12-2.57q9.09,0,14,5.29t4.87,15.09v35.37H722V91.27q0-12.54-11-12.54a11.3,11.3,0,0,0-8.79,3.55q-3.25,3.56-3.25,9.59v31.82Z"/><path class="cls-8" d="M796.27,87.43H784.48a11.22,11.22,0,0,0-4-6.62,12.5,12.5,0,0,0-8-2.47,11.8,11.8,0,0,0-10,4.7q-3.57,4.69-3.57,13.19t3.6,13.39a11.73,11.73,0,0,0,9.94,4.8,13.3,13.3,0,0,0,8-2.25,10.46,10.46,0,0,0,4.07-6.49h11.79A20.55,20.55,0,0,1,789,119.62q-6.27,5.19-16.46,5.2-12.35,0-19.23-7.54t-6.89-21q0-13.34,6.89-20.8T772.45,68Q782.74,68,789,73.3A20.78,20.78,0,0,1,796.27,87.43Z"/><path class="cls-8" d="M843.72,108.66h11.74a18.93,18.93,0,0,1-8.22,11.81q-6.47,4.32-16.06,4.32-12,0-18.91-7.52T805.4,96.56q0-13.19,6.89-20.9t18.78-7.72q11.68,0,18.31,7.32T856,95.52v4H817.84v.65q.25,6.84,3.92,10.81a12.66,12.66,0,0,0,9.77,4Q840.94,115,843.72,108.66ZM831,77.79a12.3,12.3,0,0,0-9.14,3.65,14.59,14.59,0,0,0-4,9.64h25.72q-.2-6.09-3.6-9.69A11.77,11.77,0,0,0,831,77.79Z"/><path class="cls-8" d="M868.45,123.69V69h11.94v8.49h.85a11.8,11.8,0,0,1,5.17-6.74,16.51,16.51,0,0,1,9.27-2.65,18.32,18.32,0,0,1,5.14.55V80.18a20.15,20.15,0,0,0-6.34-.7A14,14,0,0,0,884.64,83a11.83,11.83,0,0,0-3.8,9.17v31.57Z"/><polygon class="cls-9" points="276.2 123.69 280.6 47.55 303.51 47.55 317.86 100.78 334.99 47.55 356.74 47.55 361.6 123.69 344.01 123.69 341.93 65.14 324.34 123.69 309.99 123.69 294.26 63.98 294.26 123.69 276.2 123.69"/></svg>